<?xml version="1.0" standalone="no"?>
<!DOCTYPE svg PUBLIC "-//W3C//DTD SVG 1.1//EN" "http://www.w3.org/Graphics/SVG/1.1/DTD/svg11.dtd">
<svg t="1665887473637" class="icon" viewBox="0 0 1024 1024" version="1.1" xmlns="http://www.w3.org/2000/svg" p-id="23861" xmlns:xlink="http://www.w3.org/1999/xlink" width="200" height="200">
    <path d="M225.28 0h665.6a51.2 51.2 0 0 1 51.2 51.2v921.6a51.2 51.2 0 0 1-51.2 51.2H225.28V0z" p-id="23862" fill="#ffffff"></path>
    <path d="M133.12 0h51.2v1024h-51.2a51.2 51.2 0 0 1-51.2-51.2V51.2a51.2 51.2 0 0 1 51.2-51.2z" p-id="23863" fill="#ffffff"></path>
    <path d="M573.44 0h204.8v204.8a20.48 20.48 0 0 1-20.48 20.48l-82.5344-30.72L593.92 225.28a20.48 20.48 0 0 1-20.48-20.48V0z" fill="#1296db" p-id="23864"></path>
</svg>